<svg width="129" height="68" viewBox="0 0 129 68" fill="none" xmlns="http://www.w3.org/2000/svg">
<path d="M34.0743 5.30709L26.2335 10.6132L35.1198 10.8226C40.8697 10.9623 44.3719 11.1717 45.0515 11.451C48.7105 12.9172 52.4741 17.0364 54.0161 21.2603C55.4013 24.9955 55.6888 27.7882 55.5843 35.3982C55.4536 42.5894 55.1661 44.3697 53.4673 48.2097C52.5264 50.374 50.2787 53.3063 48.4753 54.7376C46.8287 56.0292 44.0322 57.2161 42.5424 57.2161C41.8367 57.2161 40.4515 57.9841 37.6811 59.8691C35.5641 61.3353 33.7607 62.6269 33.6823 62.6967C33.6039 62.8014 36.1913 62.8014 39.4322 62.7316C45.0515 62.592 45.3912 62.5222 47.3514 61.6145C50.0173 60.3229 52.7616 57.8793 54.8525 54.9121C56.4468 52.6431 58.3286 48.5238 58.7467 46.4293C58.9297 45.6264 59.1126 45.4868 60.3933 45.3123C61.1774 45.2075 62.1444 44.7886 62.5103 44.4396C63.8433 43.1479 64.0001 42.1356 64.0001 35.119C64.0001 29.0449 63.9739 28.626 63.4251 27.5089C63.0853 26.8457 62.3274 26.0078 61.7262 25.6239L60.6024 24.9606V19.829V14.6975L61.491 13.9295C63.1637 12.5681 63.3467 9.67066 61.9092 7.82051C60.8899 6.49398 59.0865 6.42417 58.1195 7.64597C56.6036 9.53102 56.8127 12.7077 58.5376 14.0691L59.2956 14.6626L59.2695 18.9214C59.2695 22.2028 59.191 22.9708 58.982 22.3075C58.8513 21.8188 58.2501 20.1781 57.7013 18.6422C54.8525 10.7877 48.1616 5.27219 41.4447 5.20237H40.2163L40.7129 3.87585C41.2356 2.51441 42.0458 -0.0339088 41.9674 0.000999451C41.9413 0.000999451 38.3868 2.37478 34.0743 5.30709ZM61.3603 9.88011C61.674 10.7528 61.6478 10.9623 61.2035 11.8001C60.916 12.2888 60.4456 12.7426 60.1581 12.8124C59.4001 12.9521 58.4592 11.7652 58.4592 10.683C58.4592 9.25176 58.982 8.65831 60.0535 8.76304C60.7853 8.83286 61.0728 9.07722 61.3603 9.88011Z" fill="white"/>
<path d="M20.1445 5.58587C17.0605 6.10949 13.9503 7.85492 11.4412 10.4731C8.59242 13.4752 6.99813 16.3377 5.42997 21.2249L4.69816 23.5288L4.67202 18.886C4.67202 15.1508 4.75043 14.2781 5.03792 14.2781C5.24701 14.2781 5.71746 13.7894 6.08337 13.1959C7.46857 11.0316 6.7629 7.71529 4.75043 6.9822C2.00615 5.96986 -0.0324628 10.508 1.95387 13.2657C2.34591 13.8243 2.8425 14.2781 3.02545 14.2781C3.28681 14.2781 3.36522 15.465 3.36522 19.6889V25.0648L2.21523 25.763C0.228897 26.915 0.0982172 27.4386 0.0198091 34.8741C-0.0324629 40.5293 -0.0063269 41.4718 0.411849 42.5191C1.06525 44.1598 1.95387 44.9278 3.57431 45.2419L4.95952 45.5212L5.58678 47.5808C6.42313 50.3735 7.7038 52.8171 9.664 55.5051C13.0617 60.1479 16.7207 62.3471 21.7388 62.6962C23.2809 62.8009 24.5354 63.0453 24.5354 63.2198C24.5354 63.3944 24.1956 64.4416 23.7513 65.5936C23.3331 66.7456 22.9672 67.7579 22.9672 67.8627C22.9672 67.9674 26.4433 65.7333 30.6774 62.9057C34.9114 60.0432 38.3875 57.6345 38.3875 57.4599C38.3875 57.3203 34.3103 57.2156 29.3183 57.2156C22.4706 57.2156 19.8832 57.0759 18.89 56.7269C16.6162 55.924 14.3162 54.0738 12.5128 51.6302C9.19355 47.127 8.33106 43.5314 8.33106 34.3505C8.33106 27.1593 8.59242 25.0997 9.89922 21.4343C12.1208 15.2555 17.348 10.7872 22.2877 10.7872C23.2809 10.7872 24.1956 10.2985 27.3319 8.13419C29.4751 6.66803 31.2524 5.41132 31.3046 5.3415C31.5137 5.06224 21.7388 5.30659 20.1445 5.58587ZM5.42997 9.8098C5.79587 10.6825 5.79587 10.8221 5.29928 11.7298C4.54134 13.0912 3.57431 13.161 2.86864 11.9741C2.21523 10.8571 2.1891 10.508 2.73796 9.46071C3.33908 8.30873 4.90724 8.51818 5.42997 9.8098Z" fill="white"/>
<path d="M21.0066 27.3342C19.935 27.9975 18.4452 30.1269 18.5759 30.86C18.6021 31.2091 18.8634 31.6629 19.0986 31.8723C19.4384 32.1516 19.6475 32.0469 20.0918 31.2789C21.6861 28.5909 24.5872 28.6607 26.3644 31.4185C26.9917 32.396 27.044 32.4309 27.619 31.9072C27.9326 31.5931 28.194 31.2091 28.194 31.0345C28.194 30.4062 26.5213 28.172 25.5542 27.5088C24.3781 26.7408 22.1827 26.636 21.0066 27.3342Z" fill="white"/>
<path d="M38.0996 27.6487C37.4723 28.1025 36.6883 29.0101 36.3485 29.6385C35.7996 30.7206 35.7996 30.8253 36.1917 31.4537C36.7928 32.2915 37.028 32.2566 37.6553 31.2093C39.1712 28.6261 41.9677 28.6261 43.7189 31.2093C44.5029 32.3613 44.5813 32.3962 45.1302 31.8726C45.6529 31.3839 45.6791 31.2792 45.3393 30.4064C44.0848 27.16 40.6348 25.8683 38.0996 27.6487Z" fill="white"/>
<path d="M27.5412 42.9023C27.0708 43.6004 27.0708 43.7401 27.4367 44.5779C28.0639 46.0789 29.7366 47.4404 31.2525 47.6847C33.0036 47.9291 34.5718 47.196 35.8786 45.4506C36.8979 44.0891 37.0286 43.0768 36.2706 42.4484C35.9047 42.1692 35.6434 42.3437 34.9377 43.3561C33.9445 44.7524 33.0036 45.3458 31.8275 45.3458C30.8343 45.3458 30.1287 44.8571 28.9526 43.391L28.0378 42.1692L27.5412 42.9023Z" fill="white"/>
<path d="M75.517 27.9326V10.4781H82.4034C83.7216 10.4781 84.8466 10.7139 85.7784 11.1855C86.7159 11.6514 87.429 12.3133 87.9176 13.1713C88.4119 14.0235 88.6591 15.0264 88.6591 16.1798C88.6591 17.3389 88.4091 18.336 87.9091 19.1713C87.4091 20.0008 86.6847 20.6372 85.7358 21.0803C84.7926 21.5235 83.6506 21.7451 82.3097 21.7451H77.6989V18.7792H81.7131C82.4176 18.7792 83.0028 18.6826 83.4688 18.4894C83.9347 18.2963 84.2813 18.0065 84.5085 17.6201C84.7415 17.2338 84.858 16.7536 84.858 16.1798C84.858 15.6002 84.7415 15.1116 84.5085 14.7139C84.2813 14.3161 83.9318 14.015 83.4602 13.8105C82.9943 13.6002 82.4063 13.4951 81.696 13.4951H79.2074V27.9326H75.517ZM84.9432 19.9894L89.2812 27.9326H85.2074L80.9631 19.9894H84.9432ZM107.307 19.2053C107.307 21.1088 106.946 22.7281 106.224 24.0633C105.509 25.3985 104.531 26.4184 103.293 27.123C102.06 27.8218 100.673 28.1713 99.1335 28.1713C97.5824 28.1713 96.1903 27.819 94.9574 27.1144C93.7244 26.4099 92.75 25.39 92.0341 24.0548C91.3182 22.7195 90.9602 21.1031 90.9602 19.2053C90.9602 17.3019 91.3182 15.6826 92.0341 14.3474C92.75 13.0122 93.7244 11.9951 94.9574 11.2963C96.1903 10.5917 97.5824 10.2394 99.1335 10.2394C100.673 10.2394 102.06 10.5917 103.293 11.2963C104.531 11.9951 105.509 13.0122 106.224 14.3474C106.946 15.6826 107.307 17.3019 107.307 19.2053ZM103.565 19.2053C103.565 17.9724 103.381 16.9326 103.011 16.086C102.648 15.2394 102.134 14.5974 101.469 14.1599C100.804 13.7224 100.026 13.5036 99.1335 13.5036C98.2415 13.5036 97.4631 13.7224 96.7983 14.1599C96.1335 14.5974 95.6165 15.2394 95.2472 16.086C94.8835 16.9326 94.7017 17.9724 94.7017 19.2053C94.7017 20.4383 94.8835 21.4781 95.2472 22.3247C95.6165 23.1713 96.1335 23.8133 96.7983 24.2508C97.4631 24.6883 98.2415 24.907 99.1335 24.907C100.026 24.907 100.804 24.6883 101.469 24.2508C102.134 23.8133 102.648 23.1713 103.011 22.3247C103.381 21.4781 103.565 20.4383 103.565 19.2053ZM110.04 10.4781H114.592L119.398 22.2053H119.603L124.41 10.4781H128.961V27.9326H125.381V16.5718H125.237L120.719 27.8474H118.282L113.765 16.5292H113.62V27.9326H110.04V10.4781ZM78.5256 56.9326H74.571L80.5966 39.4781H85.3523L91.3693 56.9326H87.4148L83.0426 43.4667H82.9062L78.5256 56.9326ZM78.2784 50.0718H87.6193V52.9525H78.2784V50.0718ZM97.1605 39.4781V56.9326H93.4702V39.4781H97.1605ZM103.657 39.4781L107.177 45.4269H107.313L110.85 39.4781H115.018L109.691 48.2053L115.137 56.9326H110.893L107.313 50.9752H107.177L103.597 56.9326H99.37L104.833 48.2053L99.4723 39.4781H103.657Z" fill="#E6E6E6"/>
</svg>
